<?xml version="1.0" standalone="no"?>
<!DOCTYPE svg PUBLIC "-//W3C//DTD SVG 20010904//EN"
 "http://www.w3.org/TR/2001/REC-SVG-20010904/DTD/svg10.dtd">
<svg version="1.0" xmlns="http://www.w3.org/2000/svg"
 width="134.000000pt" height="168.000000pt" viewBox="0 0 134.000000 168.000000"
 preserveAspectRatio="xMidYMid meet">

<g transform="translate(0.000000,168.000000) scale(0.100000,-0.100000)"
fill="#000000" stroke="none">
<path d="M43 1148 c3 -400 5 -461 21 -518 69 -244 238 -441 489 -566 l90 -46
41 18 c73 31 196 108 262 162 90 74 168 172 220 277 79 161 78 152 82 668 l3
457 -606 0 -606 0 4 -452z m1185 -15 l-3 -458 -28 -80 c-46 -137 -99 -219
-211 -330 -100 -98 -204 -170 -303 -210 l-41 -17 -73 37 c-211 106 -373 268
-447 448 -58 138 -62 184 -62 647 l0 420 586 0 585 0 -3 -457z"/>
<path d="M110 1153 c1 -272 4 -399 14 -453 43 -238 201 -437 451 -568 33 -18
67 -32 75 -32 22 0 164 85 234 139 119 93 217 234 267 386 23 68 23 83 27 488
l3 417 -535 0 -536 0 0 -377z m440 302 c-7 -8 -19 -15 -26 -15 -7 0 -11 -6 -8
-14 3 -7 -2 -16 -10 -19 -10 -4 -16 -1 -16 7 0 8 -3 21 -6 29 -4 12 3 17 28
20 18 2 37 5 42 5 5 1 3 -5 -4 -13z m120 -15 c0 -5 -4 -10 -10 -10 -5 0 -10 5
-10 10 0 6 5 10 10 10 6 0 10 -4 10 -10z m3 -27 c-7 -2 -19 -2 -25 0 -7 3 -2
5 12 5 14 0 19 -2 13 -5z m211 -15 c8 -13 8 -23 0 -35 -12 -20 -132 -63 -153
-55 -7 3 -17 -1 -22 -9 -6 -10 -9 -10 -9 -1 0 6 -10 12 -22 11 -22 0 -22 -1
-3 -9 17 -7 15 -9 -12 -9 -20 -1 -33 4 -33 12 0 8 -4 7 -10 -3 -9 -13 -10 -13
-10 0 0 13 -1 13 -10 0 -6 -10 -10 -11 -10 -2 0 6 -8 12 -18 12 -21 0 -42 18
-42 37 0 10 28 13 121 13 116 0 120 -1 114 -20 -8 -24 -9 -24 46 -5 52 18 74
42 58 62 -15 17 -38 17 -45 -2 -8 -19 -24 -20 -24 -1 0 30 66 32 84 4z m-199
-8 c3 -5 1 -10 -4 -10 -6 0 -11 5 -11 10 0 6 2 10 4 10 3 0 8 -4 11 -10z
m-170 -39 c3 -5 0 -13 -5 -16 -15 -9 -60 3 -60 15 0 13 57 13 65 1z m151 -96
c-18 -14 -18 -15 -2 -15 9 0 24 -7 32 -15 14 -13 8 -15 -48 -14 -35 1 -55 3
-45 6 9 2 15 9 12 14 -4 5 -1 9 5 9 7 0 10 7 6 15 -4 11 2 15 27 15 30 -1 31
-1 13 -15z m-51 -94 c-9 -15 23 -40 45 -34 11 3 17 10 13 16 -4 6 2 8 18 4 23
-6 23 -5 5 8 -19 14 -19 15 6 15 21 0 26 -5 25 -20 -1 -13 -9 -20 -22 -21 -11
0 7 -7 40 -15 73 -18 79 -24 64 -58 -10 -20 -17 -25 -33 -20 -38 11 -44 27 -7
19 22 -5 31 -4 27 3 -3 6 0 13 6 15 9 4 10 6 1 6 -6 1 -14 -3 -17 -8 -9 -14
-84 9 -89 28 -3 11 -5 9 -6 -6 -1 -17 5 -23 19 -23 11 0 20 -4 20 -8 0 -5 -26
-6 -59 -4 -37 3 -79 -2 -116 -12 -31 -10 -60 -15 -62 -12 -7 7 42 26 85 33 17
3 32 9 32 14 0 4 -21 2 -47 -6 -30 -9 -49 -11 -51 -5 -2 6 -8 10 -13 10 -4 0
-6 -7 -3 -15 4 -8 1 -15 -4 -15 -20 0 -18 35 3 48 18 11 17 12 -10 7 l-30 -6
25 16 c23 15 24 15 3 10 -26 -7 -32 10 -7 19 24 9 34 7 34 -7 0 -11 34 -47 45
-47 2 0 2 7 -1 15 -5 11 1 15 24 15 26 0 29 3 24 23 -5 18 -7 19 -10 5 -3 -15
-22 -27 -22 -14 0 2 -3 11 -6 20 -5 13 1 16 26 16 17 0 29 -4 25 -9z m225 -29
c3 -2 -1 -7 -8 -9 -6 -3 -10 -9 -6 -14 3 -5 0 -9 -5 -9 -6 0 -11 8 -11 18 0
14 -2 15 -10 2 -12 -19 -23 -8 -14 14 4 12 13 15 28 10 11 -4 23 -9 26 -12z
m-140 -103 c6 -10 10 -26 10 -35 0 -16 -3 -15 -21 4 -26 29 -79 27 -79 -2 0
-20 0 -20 15 0 15 18 15 18 29 1 8 -11 12 -25 9 -33 -8 -21 -36 -16 -56 11
-14 19 -15 28 -6 49 10 20 18 25 51 24 27 0 42 -6 48 -19z m-110 -4 c0 -10
-11 -15 -35 -15 -56 0 -41 25 18 29 9 0 17 -6 17 -14z m164 9 c9 -3 16 -10 16
-16 0 -14 -53 -5 -58 10 -4 13 16 16 42 6z m-222 -114 c6 -13 7 -12 7 3 1 15
13 17 111 17 103 0 110 -1 110 -20 0 -25 -32 -42 -67 -34 -19 4 -24 3 -14 -4
9 -7 1 -9 -27 -8 -22 0 -38 4 -36 8 3 4 -9 5 -26 2 -20 -5 -30 -3 -30 6 0 8
-10 11 -30 8 -16 -3 -30 -1 -30 2 0 4 -10 5 -22 3 -28 -4 -53 11 -43 27 10 17
88 9 97 -10z m268 -2 c0 -10 -7 -18 -15 -18 -8 0 -15 8 -15 18 0 10 7 19 15
19 8 0 15 -9 15 -19z m53 15 c9 -9 -12 -33 -29 -33 -8 0 -14 9 -14 20 0 19 28
28 43 13z m-185 -91 c3 -17 -2 -22 -17 -22 -14 0 -21 6 -21 18 0 38 33 41 38
4z m-44 -28 c13 -5 16 -25 16 -119 l0 -113 -37 8 c-25 6 -61 4 -108 -6 -38 -8
-81 -14 -95 -12 -27 2 -50 -8 -50 -22 0 -5 57 -11 128 -13 l127 -3 -132 -2
-133 -2 0 119 c0 113 1 121 22 135 12 9 38 16 58 17 19 0 44 4 55 9 23 10 126
13 149 4z m210 -5 c34 -6 71 -13 84 -15 21 -4 22 -8 22 -120 0 -90 -3 -113
-12 -107 -7 4 -22 6 -33 5 -11 -2 -52 4 -92 12 -40 9 -78 14 -85 12 -7 -3 -25
-7 -40 -10 l-28 -6 0 108 c0 71 4 112 12 120 15 15 93 15 172 1z m126 -154 l0
-125 -132 2 -133 2 128 3 127 4 0 119 c0 66 2 120 5 120 3 0 5 -56 5 -125z
m-286 -127 c-3 -4 -16 -8 -30 -8 -13 0 -24 4 -24 8 0 5 13 8 29 8 17 0 28 -3
25 -8z m-257 -69 c14 -9 21 -20 18 -31 -9 -27 98 -98 149 -98 28 0 32 9 42 95
8 71 10 76 29 68 11 -3 15 -21 15 -58 0 -75 13 -105 45 -105 52 0 156 69 152
100 -1 14 11 28 41 46 l43 26 -7 -39 c-9 -52 -22 -73 -39 -67 -9 4 -35 -11
-62 -34 -87 -72 -166 -122 -193 -122 -31 0 -92 37 -178 109 -43 36 -68 50 -81
46 -15 -4 -21 2 -30 39 -16 65 -15 71 12 54 12 -8 32 -21 44 -29z"/>
<path d="M618 1103 c12 -2 32 -2 45 0 12 2 2 4 -23 4 -25 0 -35 -2 -22 -4z"/>
<path d="M635 1080 c3 -5 8 -10 11 -10 2 0 4 5 4 10 0 6 -5 10 -11 10 -5 0 -7
-4 -4 -10z"/>
<path d="M510 711 c0 -17 5 -33 10 -36 6 -4 10 8 10 29 0 20 -4 36 -10 36 -5
0 -10 -13 -10 -29z"/>
<path d="M570 736 c0 -5 8 -18 18 -29 16 -20 16 -20 -3 -13 -16 6 -18 5 -7 -5
9 -10 15 -10 24 -1 10 10 7 17 -10 34 -12 12 -22 18 -22 14z"/>
<path d="M407 722 c-3 -4 3 -18 14 -31 14 -17 19 -19 19 -8 0 9 -5 19 -11 23
-8 4 -7 9 2 15 11 7 10 9 -3 9 -9 0 -19 -3 -21 -8z"/>
<path d="M460 698 c0 -23 3 -29 9 -19 8 12 4 51 -5 51 -2 0 -4 -15 -4 -32z"/>
<path d="M486 715 c4 -8 8 -15 10 -15 2 0 4 7 4 15 0 8 -4 15 -10 15 -5 0 -7
-7 -4 -15z"/>
<path d="M679 748 c0 -2 -1 -18 -2 -36 -2 -27 1 -32 18 -30 34 5 27 67 -7 68
-5 0 -8 -1 -9 -2z m31 -42 c0 -3 -4 -8 -10 -11 -5 -3 -10 -1 -10 4 0 6 5 11
10 11 6 0 10 -2 10 -4z"/>
<path d="M737 733 c-9 -9 -9 -41 1 -46 4 -3 7 8 8 24 1 31 1 32 -9 22z"/>
<path d="M769 712 c-3 -20 -2 -29 4 -23 5 5 7 19 5 32 -3 20 -5 19 -9 -9z"/>
<path d="M793 720 c-1 -11 2 -18 8 -15 5 4 12 -1 15 -10 5 -12 9 -13 14 -5 4
7 0 21 -8 31 -21 24 -27 24 -29 -1z"/>
<path d="M863 716 c3 -8 1 -17 -6 -20 -7 -2 -4 -5 6 -5 9 -1 17 -6 17 -13 0
-6 2 -9 5 -6 9 9 -6 58 -17 58 -6 0 -8 -6 -5 -14z"/>
</g>
</svg>
